# AST/ASF file generated using VICON BodyLanguage
# -----------------------------------------------
:version 1.10
:name VICON
:units
  mass 1.0
  length 0.45
  angle deg
:documentation
   .ast/.asf automatically generated from VICON data using
   VICON BodyBuilder and BodyLanguage model FoxedUp or BRILLIANT.MOD
:root
   order TX TY TZ RX RY RZ
   axis XYZ
   position 0 0 0  
   orientation 0 0 0 
:bonedata
  begin
     id 1 
     name lhipjoint
     direction 0.682418 -0.694059 0.22932 
     length 2.25561 
     axis 0 0 0  XYZ
  end
  begin
     id 2 
     name lfemur
     direction 0.34202 -0.939693 0  
     length 6.96448  
     axis 0 0 20  XYZ
    dof rx ry rz
    limits (-160.0 20.0)
           (-70.0 70.0)
           (-60.0 70.0)
  end
  begin
     id 3 
     name ltibia
     direction 0.34202 -0.939693 0   
     length 6.88553   
     axis 0 0 20   XYZ
    dof rx
    limits (-10.0 170.0)
  end
  begin
     id 4 
     name lfoot
     direction 0.0723587 -0.198804 0.977364   
     length 1.88518   
     axis -90 7.62852e-016 20   XYZ
    dof rx rz
    limits (-45.0 90.0)
           (-70.0 20.0)
  end
  begin
     id 5 
     name ltoes
     direction 1.53558e-011 -4.21962e-011 1   
     length 0.952124   
     axis -90 7.62852e-016 20   XYZ
    dof rx
    limits (-90.0 20.0)
  end
  begin
     id 6 
     name rhipjoint
     direction -0.657603 -0.71533 0.236348   
     length 2.18854  
     axis 0 0 0  XYZ 
  end
  begin
     id 7 
     name rfemur
     direction -0.34202 -0.939693 0   
     length 6.86686   
     axis 0 0 -20   XYZ
    dof rx ry rz
    limits (-160.0 20.0)
           (-70.0 70.0)
           (-70.0 60.0)
  end
  begin
     id 8 
     name rtibia
     direction -0.34202 -0.939693 0   
     length 6.59503   
     axis 0 0 -20   XYZ
    dof rx
    limits (-10.0 170.0)
 end
 begin
     id 9 
     name rfoot
     direction -0.101977 -0.280179 0.954516   
     length 1.93723  
     axis -90 -7.62852e-016 -20   XYZ
    dof rx rz
    limits (-45.0 90.0)
           (-20.0 70.0)
  end
  begin
     id 10 
     name rtoes
     direction -1.53564e-011 -4.21897e-011 1   
     length 0.970315   
     axis -90 -7.62852e-016 -20   XYZ
    dof rx
    limits (-90.0 20.0)
  end
  begin
     id 11 
     name lowerback
     direction -0.0339559 0.999421 -0.00235966   
     length 1.88543   
     axis 0 0 0   XYZ
    dof rx ry rz
    limits (-20.0 45.0)
           (-30.0 30.0)
           (-30.0 30.0)
  end
  begin
     id 12 
     name upperback
     direction 0.00401003 0.999739 0.0224689   
     length 1.8856   
     axis 0 0 0   XYZ
    dof rx ry rz
    limits (-20.0 45.0)
           (-30.0 30.0)
           (-30.0 30.0)
  end
  begin
     id 13 
     name thorax
     direction 0.0198619 0.999546 0.0226536   
     length 1.88352   
     axis 0 0 0   XYZ
    dof rx ry rz
    limits (-20.0 45.0)
           (-30.0 30.0)
           (-30.0 30.0)
  end
  begin
     id 14 
     name lowerneck
     direction -0.0461848 0.998632 0.0245198   
     length 1.34895   
     axis 0 0 0   XYZ
    dof rx ry rz
    limits (-20.0 45.0)
           (-30.0 30.0)
           (-30.0 30.0)
  end
  begin
     id 15 
     name upperneck
     direction -0.0180627 0.994724 -0.100984   
     length 1.35214   
     axis 0 0 0   XYZ
    dof rx ry rz
    limits (-20.0 45.0)
           (-30.0 30.0)
           (-30.0 30.0)
  end
  begin
     id 16
     name head
     direction -0.00374772 0.999293 -0.037403  
     length 1.3568  
     axis 0 0 0   XYZ
    dof rx ry rz
    limits (-20.0 45.0)
           (-30.0 30.0)
           (-30.0 30.0)
  end
  begin
     id 17 
     name lclavicle
     direction 0.971773 0.191119 0.138311  
     length 2.84954  
     axis 0 0 0   XYZ
    dof ry rz
    limits (-20.0 10.0)
           (0.0 20.0)
  end
  begin
     id 18 
     name lhumerus
     direction 1 -4.4897e-011 -2.43761e-027   
     length 4.40919   
     axis 180 -30 -90   XYZ
    dof rx ry rz
    limits (-60.0 90.0)
           (-90.0 90.0)
           (-90.0 90.0)
  end
  begin
     id 19
     name lradius
     direction 1 -4.4896e-011 -9.1621e-027   
     length 3.03857   
     axis 180 -30 -90   XYZ
    dof rx
    limits (-10.0 170.0)
  end
  begin
     id 20
     name lwrist
     direction 1 -4.4896e-011 -1.41363e-026   
     length 1.51928   
     axis 1.07133e-014 90 90   XYZ
    dof ry
    limits (-180.0 0.0)
 end
  begin
     id 21 
     name lhand
     direction 1 -4.48978e-011 -2.82725e-026   
     length 0.523208   
     axis 1.80403e-014 90 90   XYZ
    dof rx rz
    limits (-90.0 90.0)
           (-45.0 45.0)
  end
  begin
     id 22 
     name lfingers
     direction 1 -4.48977e-011 -5.6545e-026   
     length 0.421824   
     axis 3.60806e-014 90 90   XYZ
    dof rx
    limits (0.0 90.0)
  end
  begin
     id 23
     name lthumb
     direction 0.707107 -6.34962e-011 0.707107   
     length 0.605657   
     axis -90 45 2.85299e-015   XYZ
    dof rx rz
    limits (-45.0 45.0)
           (-45.0 45.0)
  end
  begin
     id 24 
     name rclavicle
     direction -0.957247 0.24311 0.156766   
     length 3.12406  
     axis 0 0 0   XYZ 
    dof ry rz
    limits (-10.0 20.0)
           (-20.0 0.0)
  end
  begin
     id 25 
     name rhumerus
     direction -1 -4.48964e-011 -1.70632e-027  
     length 4.61969   
     axis 180 30 90   XYZ
    dof rx ry rz
    limits (-90.0 60.0)
           (-90.0 90.0)
           (-90.0 90.0)
  end
  begin
     id 26 
     name rradius
     direction -1 -4.48966e-011 -6.60395e-027   
     length 3.09382   
     axis 180 30 90   XYZ
    dof rx
    limits (-10.0 170.0)
  end
  begin
     id 27 
     name rwrist
     direction -1 -4.48963e-011 -1.41363e-026   
     length 1.54691   
     axis 1.07133e-014 -90 -90   XYZ
    dof ry
    limits (-180.0 0.0)
  end
  begin
     id 28
     name rhand
     direction -1 -4.49013e-011 -2.82725e-026   
     length 0.500896   
     axis 1.80403e-014 -90 -90   XYZ
    dof rx rz
    limits (-90.0 90.0)
           (-45.0 45.0)
  end
  begin
     id 29
     name rfingers
     direction -1 -4.48902e-011 -5.6545e-026   
     length 0.403835   
     axis 3.60806e-014 -90 -90   XYZ
    dof rx
    limits (0.0 90.0)
  end
  begin
     id 30
     name rthumb
     direction -0.707107 -6.34953e-011 0.707107   
     length 0.579829   
     axis -90 -45 -2.85299e-015   XYZ
    dof rx rz
    limits (-45.0 45.0)
           (-45.0 45.0)
  end
:hierarchy
  begin
    root lhipjoint rhipjoint lowerback
    lhipjoint lfemur
    lfemur ltibia
    ltibia lfoot
    lfoot ltoes
    rhipjoint rfemur
    rfemur rtibia
    rtibia rfoot
    rfoot rtoes
    lowerback upperback
    upperback thorax
    thorax lowerneck lclavicle rclavicle
    lowerneck upperneck
    upperneck head
    lclavicle lhumerus
    lhumerus lradius
    lradius lwrist
    lwrist lhand lthumb
    lhand lfingers
    rclavicle rhumerus
    rhumerus rradius
    rradius rwrist
    rwrist rhand rthumb
    rhand rfingers
  end

#!OML:ASF E:\madness\Project 1\Capture day 1\Session 1\Female1.ASF
:FULLY-SPECIFIED
:DEGREES
874
root 29.6875 15.3601 -5.20546 -326.028 -76.6702 332.675
lowerback -1.87663 4.83157 -9.48461
upperback -1.90804 6.52809 0.493216
thorax -2.06132 3.42356 5.73613
lowerneck -1.13999 3.46532 -1.41107
upperneck 11.1803 2.95562 15.3647
head 3.20588 1.92436 5.01249
rclavicle -3.38928e-014 -2.22639e-014
rhumerus -62.1377 4.97383 -62.8443
rradius 52.0667
rwrist -1.95265
rhand -12.3956 -38.3327
rfingers 7.12502
rthumb 13.6757 -67.8633
lclavicle -3.38928e-014 -2.22639e-014
lhumerus -37.5165 -49.499 30.2079
lradius 100.742
lwrist -10.3469
lhand -51.7815 4.43529
lfingers 7.12502
lthumb -24.298 32.9154
rfemur -1.81924 -8.5676 35.32
rtibia 21.8754
rfoot -33.6402 -24.5334
rtoes 16.8148
lfemur -47.859 -17.1579 6.72563
ltibia 49.346
lfoot -7.85817 -3.0671
ltoes -15.4071
875
root 29.6246 15.3606 -5.19457 -324.093 -77.1952 330.834
lowerback -2.30194 4.97649 -9.60143
upperback -1.7985 6.77116 0.407838
thorax -1.75328 3.52745 5.75024
lowerneck -0.916065 3.30279 -1.88088
upperneck 10.8752 2.6791 16.4789
head 3.06781 1.78035 5.42403
rclavicle 1.81888e-014 -4.77083e-015
rhumerus -62.6541 4.54658 -62.4011
rradius 51.2663
rwrist -2.30145
rhand -11.9989 -38.4856
rfingers 7.12502
rthumb 14.058 -67.9901
lclavicle 1.81888e-014 -4.77083e-015
lhumerus -37.8924 -49.0042 29.6907
lradius 101.025
lwrist -10.2896
lhand -51.7719 4.52206
lfingers 7.12502
lthumb -24.2888 33.0034
rfemur -1.22007 -8.05878 35.3101
rtibia 21.1275
rfoot -33.1452 -24.5401
rtoes 16.5008
lfemur -47.9512 -17.0475 7.07934
ltibia 49.3931
lfoot -7.89526 -3.16223
ltoes -11.647
876
root 29.5703 15.3641 -5.17437 -321.809 -77.657 328.659
lowerback -2.60377 5.05342 -9.44783
upperback -1.6899 6.9077 0.327134
thorax -1.46444 3.57533 5.61553
lowerneck -0.879813 3.16611 -2.51446
upperneck 10.7476 2.41152 17.6558
head 3.01284 1.65005 5.89637
rclavicle -3.60794e-014 1.43125e-014
rhumerus -63.0722 4.30769 -62.0121
rradius 50.6784
rwrist -3.15768
rhand -11.2011 -39.6068
rfingers 7.12502
rthumb 14.8268 -69.0564
lclavicle -3.60794e-014 1.43125e-014
lhumerus -38.6739 -48.3289 29.3882
lradius 101.239
lwrist -10.4255
lhand -51.929 4.73008
lfingers 7.12502
lthumb -24.4395 33.1911
rfemur -0.632069 -7.92337 35.2627
rtibia 20.2649
rfoot -32.4384 -24.2342
rtoes 16.1965
lfemur -48.0797 -17.0806 7.55317
ltibia 49.3677
lfoot -7.81179 -3.08484
ltoes -7.54903
877
root 29.5258 15.3612 -5.16223 -319.003 -78.0025 326.156
lowerback -2.85821 5.12245 -9.39362
upperback -1.69945 7.02396 0.288829
thorax -1.33991 3.62681 5.56857
lowerneck -0.786148 2.98927 -3.08073
upperneck 10.5494 2.10749 18.7373
head 2.93905 1.49369 6.32884
rclavicle -5.96354e-016 -4.77083e-015
rhumerus -63.5389 4.05812 -61.6207
rradius 50.0833
rwrist -4.14827
rhand -10.7387 -40.8035
rfingers 7.12502
rthumb 15.2722 -70.2197
lclavicle -5.96354e-016 -4.77083e-015
lhumerus -39.4469 -47.6849 29.1076
lradius 101.446
lwrist -10.3754
lhand -52.1315 5.23176
lfingers 7.12502
lthumb -24.6336 33.6665
rfemur -0.415467 -7.34684 35.4988
rtibia 19.5041
rfoot -31.7751 -24.3561
rtoes 15.1988
lfemur -48.5192 -16.9631 8.29224
ltibia 49.2181
lfoot -7.81971 -3.17805
ltoes -3.51853
878
root 29.4508 15.3669 -5.14141 -316.375 -78.3544 323.861
lowerback -3.64614 5.10403 -9.39493
upperback -1.5063 7.09224 0.29071
thorax -0.709071 3.62545 5.66556
lowerneck -0.904752 2.73351 -3.47111
upperneck 10.4322 1.71009 19.438
head 2.95267 1.30075 6.61682
rclavicle -3.07122e-014 1.59028e-014
rhumerus -63.7868 3.9332 -61.2203
rradius 49.0996
rwrist -4.60486
rhand -11.2125 -40.217
rfingers 7.12502
rthumb 14.8157 -69.6673
lclavicle -3.07122e-014 1.59028e-014
lhumerus -40.3053 -46.73 29
lradius 101.606
lwrist -9.87305
lhand -52.1657 5.49779
lfingers 7.12502
lthumb -24.6663 33.928
rfemur -0.0746352 -7.04709 35.5074
rtibia 18.8124
rfoot -31.462 -23.9324
rtoes 14.5792
lfemur -48.8139 -17.072 8.94318
ltibia 49.0355
lfoot -8.45837 -2.92623
ltoes -3.55817
879
root 29.4097 15.3703 -5.11704 -314.49 -78.8115 322.317
lowerback -3.8203 5.13309 -9.44018
upperback -1.41556 7.15506 0.194732
thorax -0.520413 3.64374 5.6145
lowerneck -1.43738 2.24169 -3.70839
upperneck 10.7063 0.93391 19.8516
head 3.21329 0.959616 6.796
rclavicle -1.2921e-014 -1.43125e-014
rhumerus -64.0405 3.73026 -60.7175
rradius 47.753
rwrist -4.92743
rhand -11.8843 -38.7801
rfingers 7.12502
rthumb 14.1685 -68.277
lclavicle -1.2921e-014 -1.43125e-014
lhumerus -41.1309 -45.5905 29.0191
lradius 101.728
lwrist -9.10036
lhand -51.8604 5.28881
lfingers 7.12502
lthumb -24.3737 33.7587
rfemur 0.163809 -6.74063 35.2642
rtibia 18.1511
rfoot -31.2842 -23.2703
rtoes 14.8491
lfemur -49.1529 -17.2289 9.40825
ltibia 48.763
lfoot -8.89315 -2.63557
ltoes -2.284
880
root 29.3579 15.3633 -5.09843 -311.658 -79.0646 319.766
lowerback -3.85714 5.18403 -9.33918
upperback -1.43599 7.22172 0.122245
thorax -0.509889 3.67549 5.48643
lowerneck -1.96517 1.67109 -3.58163
upperneck 11.0324 0.0343573 20.0397
head 3.51687 0.567068 6.8303
rclavicle -1.03368e-013 1.11319e-014
rhumerus -64.6 3.36887 -60.1596
rradius 46.6144
rwrist -5.42104
rhand -11.9162 -38.67
rfingers 7.12502
rthumb 14.1377 -68.169
lclavicle -1.03368e-013 1.11319e-014
lhumerus -41.9637 -44.3965 28.9899
lradius 101.975
lwrist -8.01411
lhand -51.3714 5.07649
lfingers 7.12502
lthumb -23.9048 33.6087
rfemur 0.379374 -6.22776 35.3899
rtibia 17.5476
rfoot -31.0199 -23.0554
rtoes 14.6767
lfemur -49.4881 -17.1908 10.1622
ltibia 48.4782
lfoot -9.1149 -2.74979
ltoes 0.0340387
881
root 29.2884 15.3663 -5.07443 -310.797 -79.4023 319.109
lowerback -3.96517 5.14325 -9.52718
upperback -1.37334 7.18725 -0.0386167
thorax -0.380975 3.64852 5.43838
lowerneck -0.124225 1.89052 -4.34756
upperneck 9.02513 0.571136 21.7571
head 2.50948 0.636392 7.47487
rclavicle 6.89783e-014 -7.95139e-015
rhumerus -65.1468 2.91541 -59.4765
rradius 45.6617
rwrist -5.62866
rhand -11.6159 -39.2954
rfingers 7.12502
rthumb 14.4271 -68.774
lclavicle 6.89783e-014 -7.95139e-015
lhumerus -42.8026 -42.7733 28.9722
lradius 102.403
lwrist -6.70765
lhand -50.835 5.35883
lfingers 7.12502
lthumb -23.3903 33.9574
rfemur 0.6138 -6.15466 35.0804
rtibia 17.2376
rfoot -30.8917 -22.7507
rtoes 14.7113
lfemur -49.7324 -17.6085 10.5886
ltibia 48.119
lfoot -10.8565 -2.63453
ltoes 0.813387
882
root 29.2432 15.3591 -5.04877 -309.179 -79.4521 318.01
lowerback -4.04749 5.01683 -9.52352
upperback -1.41539 7.025 -0.0590843
thorax -0.349374 3.56702 5.42272
lowerneck 0.595754 1.57008 -4.40005
upperneck 8.08202 0.265459 22.1511
head 2.14847 0.391996 7.58613
rclavicle -2.96189e-014 1.59028e-014
rhumerus -65.4528 2.47453 -58.5292
rradius 44.565
rwrist -5.24878
rhand -11.3613 -39.5218
rfingers 7.12502
rthumb 14.6725 -68.9827
lclavicle -2.96189e-014 1.59028e-014
lhumerus -43.7473 -40.5387 29.1607
lradius 103.178
lwrist -5.5557
lhand -50.2484 6.40532
lfingers 7.12502
lthumb -22.8275 35.0745
rfemur 0.444605 -6.0663 35.1166
rtibia 16.8206
rfoot -30.6178 -22.5158
rtoes 14.9053
lfemur -50.4864 -17.8164 11.4422
ltibia 47.7707
lfoot -11.1677 -2.41124
ltoes -1.90464
883
root 29.192 15.3424 -5.02605 -306.882 -79.6616 316.177
lowerback -4.19109 4.86039 -9.70299
upperback -1.35787 6.84309 0.0258946
thorax -0.211466 3.46975 5.62824
lowerneck 1.15883 1.39367 -4.79836
upperneck 7.22727 0.139049 22.7621
head 1.81248 0.241068 7.84261
rclavicle -7.0171e-014 2.06736e-014
rhumerus -65.5173 2.18596 -57.3982
rradius 43.4402
rwrist -4.66039
rhand -10.9369 -39.6889
rfingers 7.12502
rthumb 15.0813 -69.1195
lclavicle -7.0171e-014 2.06736e-014
lhumerus -45.1896 -37.9777 29.567
lradius 104.266
lwrist -4.62664
lhand -50.1291 7.57354
lfingers 7.12502
lthumb -22.713 36.2568
rfemur 0.403845 -5.69941 35.124
rtibia 16.3253
rfoot -30.2844 -22.4207
rtoes 14.5211
lfemur -51.0482 -17.6665 12.1208
ltibia 47.3775
lfoot -10.2221 -2.50883
ltoes -1.53181
